<svg width="161" height="50" viewBox="0 0 161 50" fill="none" xmlns="http://www.w3.org/2000/svg">
<path d="M135.432 49.2123C135.045 48.4388 134.803 44.9582 134.755 38.3836C134.707 29.8754 134.61 28.6668 133.933 28.8119C133.498 28.8602 132.87 28.2317 132.386 27.2649C131.226 24.8478 132.048 14.8409 133.547 12.7622C134.417 11.602 134.513 10.9735 134.272 8.89481C133.643 4.15726 133.643 4.01224 134.804 3.86721C136.205 3.67384 136.882 5.26914 136.882 8.6531V11.0219H138.719C141.571 11.0219 142.587 11.5053 143.36 13.1973C144.375 15.3727 144.424 22.9624 143.408 24.4127C142.78 25.3312 142.78 25.4279 143.795 25.7663C144.375 25.9597 148.291 26.2014 152.545 26.2981C159.506 26.3947 161.972 26.8298 160.667 27.6516C160.377 27.7967 158.781 28.0867 157.089 28.2317C155.446 28.4251 153.802 28.7635 153.464 29.0052C153.125 29.2953 149.403 29.5853 145.1 29.7304L137.366 30.0204V39.4472C137.414 47.0853 137.269 49.0189 136.689 49.5991C136.109 50.2275 135.915 50.1308 135.432 49.2123ZM139.493 24.316C140.169 23.8326 140.508 22.5757 140.895 19.4334C141.378 15.5661 141.33 15.1793 140.508 14.5992C139.348 13.729 138.574 13.729 137.656 14.6959C137.076 15.276 136.882 16.5329 136.882 20.2553C136.882 24.5094 136.979 25.0412 137.752 25.0412C138.187 25.0412 138.961 24.7028 139.493 24.316ZM134.562 23.0108C134.127 22.5757 133.982 22.6724 133.982 23.5909C133.982 24.5094 134.127 24.6061 134.562 24.171C134.997 23.7359 134.997 23.4459 134.562 23.0108Z" fill="#00d3f3"/>
<path d="M4.18247 40.5107C0.991879 40.3173 0.315086 40.124 0.170059 39.4472C-0.0233102 38.3836 0.846852 38.287 1.23359 39.3021C1.4753 39.9306 3.74739 40.0273 18.2984 39.8823C34.7832 39.7856 35.1216 39.7856 35.1216 38.8187C35.1216 37.8035 34.1064 37.7069 19.7004 37.6102C18.1051 37.6102 16.9448 37.4651 17.1382 37.3201C17.525 36.9334 34.7348 36.9817 35.3633 37.3685C36.0401 37.8035 35.9434 39.8823 35.2182 40.3657C34.5898 40.7524 10.3703 40.8974 4.18247 40.5107Z" fill="#00d3f3"/>
<path d="M10.902 37.5618C10.3219 37.3201 11.2404 37.175 13.2708 37.175C15.2045 37.1267 16.5098 37.3201 16.5098 37.6101C16.5098 38.1902 12.4007 38.1419 10.902 37.5618Z" fill="#00d3f3"/>
<path d="M13.1258 35.4831C8.48493 34.4679 5.72942 32.5342 2.97391 28.3768C0.315077 24.4127 -0.748454 19.2401 0.556788 16.7746C1.04021 15.9045 1.76535 15.8561 16.7515 15.8561C34.6381 15.8561 34.3481 15.8078 38.3605 19.9169C40.1975 21.7539 40.1492 24.7995 38.2155 27.4583C36.3785 29.9721 35.1699 30.5522 31.8826 30.4555C29.9006 30.4072 28.837 30.6489 28.0152 31.2773C26.71 32.3409 21.344 35.2898 21.344 34.9514C21.344 34.8547 22.8426 33.8878 24.6313 32.8243C26.4683 31.7608 28.2569 30.5522 28.5953 30.1171C29.0788 29.537 29.7072 29.392 30.9158 29.6337C32.6561 29.9721 36.8135 29.0052 36.8135 28.2801C36.8135 28.0867 37.2003 27.4583 37.732 26.9265C40.1008 24.3644 39.0856 20.5453 35.3149 18.0315C33.0428 16.5813 33.1879 16.5813 11.4822 16.7263L0.895185 16.823L1.23358 20.497C1.37861 22.7691 1.91037 24.9928 2.53882 26.2497C4.76257 30.6489 9.79017 34.4196 14.3344 35.048C15.5429 35.1931 16.5098 35.5315 16.5098 35.7248C16.5098 36.2566 16.5098 36.2566 13.1258 35.4831Z" fill="#00d3f3"/>
<path d="M54.2168 31.2289C53.8784 30.1654 53.25 28.4734 52.7182 27.5065C52.2348 26.5397 51.7997 25.5245 51.7997 25.1861C51.7997 24.4126 46.2403 13.5356 45.2735 12.4721C43.8716 10.9251 44.6934 9.08812 46.8204 9.08812C47.5456 9.08812 48.3191 9.76491 49.2859 11.1668C51.6063 14.6475 53.25 17.6447 52.9116 17.9831C52.7666 18.1281 52.9599 18.6599 53.3467 19.095C53.7817 19.5784 54.6519 21.5604 55.232 23.4941C55.8605 25.3795 56.5856 26.9264 56.8273 26.8297C57.069 26.7331 57.8908 24.3159 58.616 21.3671C60.1146 15.421 62.3383 8.94309 63.6436 7.0094C65.1422 4.68896 67.4626 4.78565 68.7679 7.29945C69.2029 8.02458 69.1063 8.36298 68.3328 8.89475C66.5925 10.1033 64.272 14.7442 62.9184 19.7234C61.3231 25.5728 59.1961 31.0355 58.1325 32.0991C57.5041 32.7275 56.4889 33.2593 55.8605 33.2593C54.942 33.2593 54.6519 32.8725 54.2168 31.2289Z" fill="#00d3f3"/>
<path d="M80.7084 31.7124C78.7264 30.5522 76.7443 27.2649 76.3092 24.461C76.0675 22.8174 76.2609 22.479 79.6449 18.805C81.6269 16.6779 83.9473 14.5509 84.8175 14.0191C86.6545 12.9072 90.2802 12.2788 90.7153 12.9556C90.8603 13.1973 91.4404 13.439 91.9238 13.439C93.084 13.439 94.5343 15.566 94.1476 16.6296C93.9059 17.258 93.4224 17.3547 91.5371 17.113C87.3313 16.5812 83.2222 18.9017 81.3368 22.9141C80.4183 24.7994 80.37 25.3795 80.8051 26.4914C81.9169 29.1986 85.3493 29.6337 89.7484 27.5549C96.1296 24.5094 97.9666 25.6212 93.0357 29.4886C91.4887 30.6972 89.5067 31.9058 88.5882 32.1958C86.0261 33.1143 82.7388 32.8726 80.7084 31.7124Z" fill="#00d3f3"/>
<path d="M120.542 31.9541C118.222 30.8422 117.449 29.3436 117.159 25.5729C116.965 22.3823 117.932 16.4846 119.092 14.3091C119.382 13.729 119.334 13.439 118.996 13.439C117.4 13.439 108.989 14.5509 108.505 14.8409C107.925 15.131 107.345 21.2221 107.2 28.5218C107.152 31.664 106.62 32.4375 104.686 32.1958L103.284 32.0508V23.8326V15.6144L100.045 15.6627L96.7581 15.7111V13.729V11.747L99.6586 11.6503C101.786 11.5536 102.946 11.2636 104.009 10.4901C105.315 9.47491 105.508 9.47491 106.281 10.1517C107.007 10.7802 108.554 10.9252 114.935 10.8768C119.189 10.8768 123.008 11.0702 123.395 11.3119C123.781 11.5053 124.652 11.6503 125.425 11.5536C126.634 11.4569 126.875 11.6987 127.987 14.1641C129.099 16.5812 129.244 17.4031 129.051 20.642C128.906 23.2525 128.471 25.1378 127.504 27.3132C125.377 32.0024 123.346 33.356 120.542 31.9541ZM123.975 27.5066C125.28 25.9113 126.15 22.8174 126.344 18.805C126.537 15.566 125.812 15.2277 124.362 17.7898C123.733 18.9017 122.766 19.9652 122.138 20.2069C121.316 20.497 120.978 21.1254 120.784 22.8174C120.591 24.026 120.542 25.2829 120.639 25.6213C120.784 25.9596 120.978 26.8298 121.123 27.6033C121.509 29.2953 122.476 29.2469 123.975 27.5066Z" fill="#00d3f3"/>
<path d="M69.493 31.9057C69.3479 31.664 69.2029 27.6999 69.2029 23.1074C69.1062 15.8561 69.2029 14.6958 69.8797 14.3091C72.4902 12.8588 73.602 15.8561 73.5054 24.0743C73.4087 31.3739 73.1186 32.2925 71.1849 32.2925C70.4115 32.2925 69.638 32.0991 69.493 31.9057Z" fill="#00d3f3"/>
<path d="M31.2058 26.7331C31.0124 26.3463 31.2542 25.1378 31.6892 24.0742C32.1243 23.0107 32.4627 21.6088 32.4627 20.932C32.4627 20.3035 32.7044 19.6267 32.9461 19.4817C33.6229 19.0466 33.5262 20.6419 32.7044 23.3974C32.3177 24.7027 31.9793 25.9112 31.9793 26.1529C31.9793 26.8781 33.9613 26.443 34.9282 25.4762C35.75 24.6543 35.895 24.0742 35.7017 22.6723L35.4116 20.932L36.1367 22.2372C36.9586 23.7842 36.4268 25.5245 34.7832 26.6847C33.4296 27.6516 31.5442 27.6999 31.2058 26.7331Z" fill="#00d3f3"/>
<path d="M10.5153 13.9708C10.3219 13.729 10.6603 13.6324 11.1921 13.7774C11.8689 13.9708 12.2556 13.6807 12.6907 12.6655C12.9807 11.892 13.4158 10.9252 13.6092 10.4901C13.8026 10.1034 13.6575 8.94316 13.2708 7.83128C12.8841 6.81609 12.4006 4.97909 12.2073 3.81887C11.8689 1.20839 11.047 0.821646 10.2252 2.80368C9.64512 4.15727 9.69346 5.17246 10.5153 8.74979C10.7086 9.57161 10.612 10.055 10.2736 10.055C9.98351 10.055 9.7418 9.52327 9.7418 8.84647C9.7418 8.21802 9.50009 7.15449 9.21004 6.4777C8.53324 5.02743 9.4034 1.25673 10.5636 0.289881C11.6272 -0.580281 13.2224 1.4501 12.8357 3.09374C12.6423 3.72219 12.8841 4.97909 13.2708 5.84925C14.6244 8.70145 14.7211 9.86166 13.6575 12.1821C12.9807 13.7774 12.4006 14.4058 11.7238 14.4058C11.1921 14.4058 10.6603 14.2125 10.5153 13.9708Z" fill="#00d3f3"/>
<path d="M19.7003 13.9707C19.507 13.729 19.8454 13.6323 20.3771 13.7774C21.0539 13.9707 21.4406 13.6807 21.779 12.9072C23.1326 9.4749 23.181 8.79811 21.9724 6.42933C21.5373 5.65586 21.1989 4.25393 21.1506 3.33543C21.1023 1.20836 20.1837 0.91831 19.4103 2.80366C18.8302 4.15725 18.8785 5.17243 19.7003 8.74977C19.8937 9.4749 19.797 10.055 19.5553 10.055C19.3619 10.055 18.8785 8.84645 18.5401 7.39618C17.8633 4.4473 18.3467 1.45007 19.7003 0.338201C20.3771 -0.193564 20.6188 -0.145222 21.3923 0.821625C21.9724 1.54676 22.2141 2.32024 22.0208 3.09371C21.8274 3.72216 22.0691 4.97906 22.4558 5.84923C23.8578 8.79811 23.9061 9.90998 22.7942 12.2304C21.779 14.3091 20.3771 15.0826 19.7003 13.9707Z" fill="#00d3f3"/>
<path d="M70.2181 5.65584C69.0096 4.54396 68.8645 3.04535 69.9764 2.61027C71.5717 1.98182 72.4902 2.32022 72.9736 3.6738C73.3604 4.78568 73.2637 5.12407 72.3452 5.80087C71.33 6.57434 71.185 6.57434 70.2181 5.65584Z" fill="#00d3f3"/>
</svg>
